<svg width="21" height="20" viewBox="0 0 21 20" fill="none" xmlns="http://www.w3.org/2000/svg">
<path d="M1.47806 0.405014C1.3482 0.367355 1.21057 0.365501 1.07975 0.399649C0.948921 0.433797 0.829759 0.502677 0.734871 0.598999C0.639983 0.695322 0.572899 0.815504 0.540718 0.946828C0.508537 1.07815 0.512455 1.21573 0.552059 1.34501L2.98406 9.25001H11.5001C11.699 9.25001 11.8897 9.32903 12.0304 9.46968C12.171 9.61034 12.2501 9.8011 12.2501 10C12.2501 10.1989 12.171 10.3897 12.0304 10.5303C11.8897 10.671 11.699 10.75 11.5001 10.75H2.98406L0.552059 18.655C0.512455 18.7843 0.508537 18.9219 0.540718 19.0532C0.572899 19.1845 0.639983 19.3047 0.734871 19.401C0.829759 19.4974 0.948921 19.5662 1.07975 19.6004C1.21057 19.6345 1.3482 19.6327 1.47806 19.595C8.09303 17.6713 14.331 14.6323 19.9231 10.609C20.0197 10.5396 20.0984 10.4481 20.1527 10.3422C20.207 10.2363 20.2353 10.119 20.2353 10C20.2353 9.88101 20.207 9.76372 20.1527 9.65782C20.0984 9.55193 20.0197 9.46047 19.9231 9.39101C14.331 5.36766 8.09304 2.32866 1.47806 0.405014Z" fill="#2F2E41"/>
</svg>
