<svg width="36" height="36" viewBox="0 0 36 36" fill="none" xmlns="http://www.w3.org/2000/svg">
<path d="M6 33V24.1125C6 23.6125 6.119 23.1375 6.357 22.6875C6.595 22.2375 6.926 21.875 7.35 21.6L9 20.5125C9.175 22.6125 9.45 24.4 9.825 25.875C10.2 27.35 10.7875 28.9875 11.5875 30.7875L6 33ZM13.8375 30C12.9625 28.35 12.3125 26.6 11.8875 24.75C11.4625 22.9 11.25 20.9875 11.25 19.0125C11.25 15.8875 11.869 12.9435 13.107 10.1805C14.345 7.41749 15.976 5.32399 18 3.89999C20.025 5.32499 21.6565 7.41899 22.8945 10.182C24.1325 12.945 24.751 15.8885 24.75 19.0125C24.75 20.9625 24.5375 22.8565 24.1125 24.6945C23.6875 26.5325 23.0375 28.301 22.1625 30H13.8375ZM18 19.5C18.825 19.5 19.5315 19.206 20.1195 18.618C20.7075 18.03 21.001 17.324 21 16.5C21 15.675 20.706 14.9685 20.118 14.3805C19.53 13.7925 18.824 13.499 18 13.5C17.175 13.5 16.4685 13.794 15.8805 14.382C15.2925 14.97 14.999 15.676 15 16.5C15 17.325 15.294 18.0315 15.882 18.6195C16.47 19.2075 17.176 19.501 18 19.5ZM30 33L24.4125 30.7875C25.2125 28.9875 25.8 27.35 26.175 25.875C26.55 24.4 26.825 22.6125 27 20.5125L28.65 21.6C29.075 21.875 29.4065 22.2375 29.6445 22.6875C29.8825 23.1375 30.001 23.6125 30 24.1125V33Z" fill="white"/>
</svg>
