<svg width="36" height="36" viewBox="0 0 36 36" fill="none" xmlns="http://www.w3.org/2000/svg">
<path d="M0.642883 18C0.642883 16.9557 1.11699 15.9542 1.9609 15.2158C2.80482 14.4773 3.94941 14.0625 5.14288 14.0625C6.33636 14.0625 7.48095 14.4773 8.32486 15.2158C9.16878 15.9542 9.64288 16.9557 9.64288 18C9.64288 19.0443 9.16878 20.0458 8.32486 20.7842C7.48095 21.5227 6.33636 21.9375 5.14288 21.9375C3.94941 21.9375 2.80482 21.5227 1.9609 20.7842C1.11699 20.0458 0.642883 19.0443 0.642883 18ZM13.5 18C13.5 16.9557 13.9741 15.9542 14.818 15.2158C15.662 14.4773 16.8066 14.0625 18 14.0625C19.1935 14.0625 20.3381 14.4773 21.182 15.2158C22.0259 15.9542 22.5 16.9557 22.5 18C22.5 19.0443 22.0259 20.0458 21.182 20.7842C20.3381 21.5227 19.1935 21.9375 18 21.9375C16.8066 21.9375 15.662 21.5227 14.818 20.7842C13.9741 20.0458 13.5 19.0443 13.5 18ZM30.8572 14.0625C32.0506 14.0625 33.1952 14.4773 34.0392 15.2158C34.8831 15.9542 35.3572 16.9557 35.3572 18C35.3572 19.0443 34.8831 20.0458 34.0392 20.7842C33.1952 21.5227 32.0506 21.9375 30.8572 21.9375C29.6637 21.9375 28.5191 21.5227 27.6752 20.7842C26.8313 20.0458 26.3572 19.0443 26.3572 18C26.3572 16.9557 26.8313 15.9542 27.6752 15.2158C28.5191 14.4773 29.6637 14.0625 30.8572 14.0625Z" fill="white"/>
</svg>
