<svg width="36" height="36" viewBox="0 0 36 36" fill="none" xmlns="http://www.w3.org/2000/svg">
<path fill-rule="evenodd" clip-rule="evenodd" d="M18 3C9.71551 3 3.00001 9.71551 3.00001 18C2.99725 20.2102 3.48444 22.3936 4.42651 24.393L3.03151 31.1985C2.98185 31.4415 2.9932 31.693 3.06457 31.9305C3.13594 32.1681 3.26509 32.3842 3.44047 32.5595C3.61584 32.7349 3.83196 32.8641 4.06948 32.9354C4.30701 33.0068 4.55852 33.0182 4.80151 32.9685L11.607 31.5735C13.548 32.4885 15.717 32.9985 18 32.9985C26.2845 32.9985 33 26.2845 33 17.9985C33 9.7155 26.2845 2.9985 18 2.9985V3Z" fill="white"/>
</svg>
